<svg xmlns="http://www.w3.org/2000/svg" xmlns:xlink="http://www.w3.org/1999/xlink" width="16" height="14" viewBox="0 0 16 14">
    <defs>
        <path id="dvizcop3ua" d="M11.5 0c.245 0 .45.177.492.41L12 .5v1c0 .245.177.45.41.492L12.5 2h2c.78 0 1.42.595 1.493 1.356L16 3.5v9c0 .78-.595 1.42-1.356 1.493L14.5 14h-13c-.78 0-1.42-.595-1.493-1.356L0 12.5v-9c0-.78.595-1.42 1.356-1.493L1.5 2h2c.245 0 .45-.177.492-.41L4 1.5v-1c0-.245.177-.45.41-.492L4.5 0h7z"/>
    </defs>
    <g fill="none" fill-rule="evenodd">
        <mask id="6fm4cmax5b" fill="#fff">
            <use xlink:href="#dvizcop3ua"/>
        </mask>
        <path stroke="#616770" stroke-width="2" d="M0 3.5v9c0 .828.672 1.5 1.5 1.5h13c.828 0 1.5-.672 1.5-1.5v-9c0-.828-.672-1.5-1.5-1.5h-2c-.276 0-.5-.224-.5-.5v-1c0-.276-.224-.5-.5-.5h-7c-.276 0-.5.224-.5.5v1c0 .276-.224.5-.5.5h-2C.672 2 0 2.672 0 3.5z" mask="url(#6fm4cmax5b)"/>
    </g>
</svg>
