<svg xmlns="http://www.w3.org/2000/svg" xmlns:xlink="http://www.w3.org/1999/xlink" width="13" height="14" viewBox="0 0 13 14">
    <defs>
        <path id="dx006fm3va" d="M3.2 0l7.02.493c.504.034.974.256 1.305.63.331.374.505.85.47 1.31l-.4 5.545-.313 4.287c-.035.493-.262.952-.645 1.276-.348.306-.784.459-1.236.459h-.14l-7.036-.476c-.505-.034-.975-.255-1.306-.63-.33-.374-.488-.85-.453-1.344l.697-9.832C1.25.748 2.086 0 3.06 0h.14zm5.434 5.767L5.482 8.335l.453.494c.157.17.14.442-.035.595-.087.068-.192.102-.296.102-.122 0-.244-.034-.33-.136L3.478 7.417 1.511 8.965 1.32 11.6c-.035.562.4 1.038.958 1.072l7.036.476h.07c.26 0 .487-.085.678-.238.21-.17.331-.408.349-.68l.313-4.1-2.09-2.364zM3.148.85h-.07c-.54 0-.992.409-1.027.936l-.435 6.039 1.672-1.31c.174-.136.435-.119.592.051L4.89 7.69l3.5-2.84c.192-.154.453-.12.61.05l1.811 2.024.331-4.525c.035-.56-.4-1.037-.958-1.071L3.148.85z"/>
    </defs>
    <g fill="none" fill-rule="evenodd">
        <mask id="rzw1j9f2fb" fill="#fff">
            <use xlink:href="#dx006fm3va"/>
        </mask>
        <path fill="#FF5349" d="M-4.538 -5L17 -5 17 19 -4.538 19z" mask="url(#rzw1j9f2fb)"/>
    </g>
</svg>
