<svg xmlns="http://www.w3.org/2000/svg" xmlns:xlink="http://www.w3.org/1999/xlink" width="18" height="16" viewBox="0 0 18 16">
    <defs>
        <path id="51wtghlpja" d="M8.686 0c4.797 0 8.685 3.582 8.685 8s-3.888 8-8.685 8C3.889 16 0 12.418 0 8s3.889-8 8.686-8z"/>
        <path id="8yfn2h6g0c" d="M5.258 0c1.657 0 3 1.343 3 3v.5c0 1.657-1.343 3-3 3h-.542L2.729 8V6.5l-.158-.006C1.523 6.417.675 5.584.595 4.52L.5 3.223C.493 3.15.49 3.075.49 3c0-1.657 1.343-3 3-3h1.768z"/>
    </defs>
    <g fill="none" fill-rule="evenodd">
        <mask id="u0fv90yzyb" fill="#fff">
            <use xlink:href="#51wtghlpja"/>
        </mask>
        <path fill="#FF5349" d="M-5 -5L22.371 -5 22.371 21 -5 21z" mask="url(#u0fv90yzyb)"/>
        <g transform="translate(4 4)">
            <mask id="pww0w8v9ad" fill="#fff">
                <use xlink:href="#8yfn2h6g0c"/>
            </mask>
            <path fill="#FFF" d="M-4.51 -5L13.258 -5 13.258 13 -4.51 13z" mask="url(#pww0w8v9ad)"/>
        </g>
    </g>
</svg>
