<svg xmlns="http://www.w3.org/2000/svg" xmlns:xlink="http://www.w3.org/1999/xlink" width="18" height="17" viewBox="0 0 18 17">
    <defs>
        <path id="p7fvojqx0a" d="M15.085 0C16.69 0 18 1.237 18 2.753v11.493C18 15.763 16.69 17 15.085 17H2.915C1.31 17 0 15.763 0 14.246V2.754C0 1.237 1.31 0 2.916 0h12.169zM17 9H1v5.354C1 15.262 1.83 16 2.853 16h12.272C16.148 16 17 15.243 17 14.335V9zM5 2c-1.111 0-2 .889-2 2s.889 2 2 2 2-.889 2-2-.889-2-2-2zm10.414 3h-6.85C8.247 5 8 5.22 8 5.5s.248.5.563.5h6.874c.315 0 .563-.22.563-.5s-.248-.5-.586-.5zm.02-2h-6.87C8.249 3 8 3.22 8 3.5s.248.5.565.5h6.891c.317 0 .565-.22.543-.5 0-.28-.249-.5-.565-.5z"/>
    </defs>
    <g fill="none" fill-rule="evenodd">
        <mask id="qo2wwlu9sb" fill="#fff">
            <use xlink:href="#p7fvojqx0a"/>
        </mask>
        <path fill="#FFF" d="M-5 -5L23 -5 23 22 -5 22z" mask="url(#qo2wwlu9sb)"/>
    </g>
</svg>
