<svg xmlns="http://www.w3.org/2000/svg" xmlns:xlink="http://www.w3.org/1999/xlink" width="14" height="12" viewBox="0 0 14 12">
    <defs>
        <path id="grbbj8xila" d="M8.181.005l1.715.624-1.194 3.279 3.003-1.733.913 1.58L9.57 5.515l3.458.61-.317 1.798-3.438-.607 2.257 2.69-1.398 1.172-2.22-2.645L7.913 12H6.087V8.532l-2.219 2.645-1.398-1.173 2.256-2.689-3.437.606-.317-1.797 3.457-.61-3.047-1.758.913-1.581 3.002 1.733L4.104.629 5.819.005 7 3.249 8.181.005zM6.999 3.519l-1.521.554-.846 1.465.299 1.692 1.265 1.063h1.607L9.068 7.23l.299-1.692-.846-1.465-1.522-.554z"/>
    </defs>
    <g fill="none" fill-rule="evenodd">
        <mask id="4ztp99rlbb" fill="#fff">
            <use xlink:href="#grbbj8xila"/>
        </mask>
        <path fill="#FFF" d="M-4.028 -4.995L18.028 -4.995 18.028 17 -4.028 17z" mask="url(#4ztp99rlbb)"/>
    </g>
</svg>
