<svg xmlns="http://www.w3.org/2000/svg" xmlns:xlink="http://www.w3.org/1999/xlink" width="16" height="17" viewBox="0 0 16 17">
    <defs>
        <path id="8atvzy0e2a" d="M12 0c2.21 0 4 1.79 4 4v8c0 2.21-1.79 4-4 4H4c-2.21 0-4-1.79-4-4V4c0-2.21 1.79-4 4-4h8z"/>
    </defs>
    <g fill="none" fill-rule="evenodd">
        <mask id="vd60edk36b" fill="#fff">
            <use xlink:href="#8atvzy0e2a"/>
        </mask>
        <path stroke="#FF5349" stroke-width="2" d="M4 0h8c2.21 0 4 1.79 4 4v8c0 2.21-1.79 4-4 4H4c-2.21 0-4-1.79-4-4V4c0-2.21 1.79-4 4-4z" mask="url(#vd60edk36b)"/>
        <g stroke="#FF5349">
            <path stroke-linecap="square" d="M4 12.812L10 5.812M10 6L14 10" transform="translate(1 3)"/>
            <path d="M3.5 3C4.328 3 5 2.328 5 1.5S4.328 0 3.5 0 2 .672 2 1.5 2.672 3 3.5 3z" transform="translate(1 3)"/>
            <path stroke-linecap="square" d="M.5 10.5L3.5 6.5M3.5 5.5L6.5 8.5" transform="translate(1 3)"/>
        </g>
    </g>
</svg>
