<svg xmlns="http://www.w3.org/2000/svg" width="17" height="16" viewBox="0 0 17 16">
    <path fill="none" fill-rule="evenodd" stroke="#616770" stroke-linejoin="round" stroke-width="1.3" d="M16 9.162c0-.494-.276-.926-.686-1.16-.008-.004-.012-.016-.004-.022.326-.246.536-.628.536-1.06 0-.742-.621-1.345-1.388-1.345h-4.24c.78-3.955-1.184-4.741-1.967-4.548-.467.114-.517-.012-.432.886l.04 1.485c.004.149-.015.3-.059.451-.044.15-.111.289-.196.413l-2.02 2.953v7.327h7.41c.73-.04 1.31-.627 1.31-1.345 0-.216-.053-.42-.147-.6-.004-.008-.002-.018.007-.02.649-.112 1.142-.66 1.142-1.322 0-.3-.102-.575-.272-.798-.004-.005-.001-.013.005-.015.558-.174.961-.681.961-1.28h0zM1 15h4.584V5.79H1V15z"/>
</svg>
