<svg xmlns="http://www.w3.org/2000/svg" xmlns:xlink="http://www.w3.org/1999/xlink" width="16" height="18" viewBox="0 0 16 18">
    <defs>
        <path id="3abj6o2t5a" d="M8.75.717c2.743.42 4.775 2.745 4.849 5.496l.001.237v3.717l1.5 1.508c.385.392.498.976.288 1.483-.193.465-.625.782-1.119.834l-.136.008h-2.8v.283c-.081 1.762-1.571 3.126-3.333 3.05-1.701.073-3.149-1.196-3.32-2.869l-.013-.18V14h-2.8c-.55-.003-1.044-.335-1.255-.842-.19-.461-.115-.986.19-1.372l.098-.111 1.5-1.508V6.275c.003-1.616.702-3.152 1.917-4.216C5.533.995 7.148.506 8.75.717zM9.667 14H6.333v.283c.096.833.831 1.443 1.667 1.384.787.055 1.484-.481 1.644-1.24l.023-.144V14zM5.417 3.308c-.8.698-1.282 1.687-1.343 2.74l-.007.227v3.892c0 .388-.136.763-.38 1.06l-.112.123-.983.983h10.816l-.991-.983c-.273-.275-.44-.636-.477-1.018l-.007-.165v-3.75c.043-2.019-1.407-3.76-3.4-4.084-1.131-.147-2.271.21-3.116.975z"/>
    </defs>
    <g fill="none" fill-rule="evenodd">
        <mask id="masrr31r9b" fill="#fff">
            <use xlink:href="#3abj6o2t5a"/>
        </mask>
        <path fill="#000" fill-opacity=".599" d="M-4.492 -4.331L20.492 -4.331 20.492 22.336 -4.492 22.336z" mask="url(#masrr31r9b)"/>
    </g>
</svg>
