<svg xmlns="http://www.w3.org/2000/svg" xmlns:xlink="http://www.w3.org/1999/xlink" width="16" height="16" viewBox="0 0 16 16">
    <defs>
        <path id="7f1kxs977a" d="M6.737 0c3.72 0 6.737 3.016 6.737 6.737.002 1.496-.5 2.95-1.424 4.126l2.864 2.855c.16.158.249.373.249.598 0 .224-.09.44-.25.598-.157.16-.373.249-.597.249-.225 0-.44-.09-.598-.25l-2.855-2.863c-1.177.924-2.63 1.425-4.126 1.424C3.017 13.474 0 10.457 0 6.737S3.016 0 6.737 0zm0 1.684c-2.79 0-5.053 2.262-5.053 5.053 0 2.79 2.262 5.053 5.053 5.053 2.79 0 5.053-2.263 5.053-5.053S9.527 1.684 6.737 1.684z"/>
    </defs>
    <g fill="none" fill-rule="evenodd">
        <mask id="7w0ijchmtb" fill="#fff">
            <use xlink:href="#7f1kxs977a"/>
        </mask>
        <path fill="#000" d="M-5 -5L20.163 -5 20.163 20.163 -5 20.163z" mask="url(#7w0ijchmtb)"/>
    </g>
</svg>
